<svg width="120" height="48" viewBox="0 0 120 48" fill="none" xmlns="http://www.w3.org/2000/svg">
<path d="M0.75529 20.0943V0.422649H6.9933L10.6891 13.8403L14.3348 0.422649H20.6002V20.0965H16.7402L16.7311 4.61096L12.6727 20.0965H8.6668L4.6244 4.60868L4.60617 20.0943H0.75529V20.0943ZM43.3247 20.0943H38.8263L37.0502 15.6141H28.7853L27.0799 20.0943H22.6681L30.664 0.420369H35.0666L43.3247 20.0943ZM35.6982 12.2876L32.8368 5.01451L30.0529 12.2876H35.6982ZM44.4441 13.7172L48.5025 13.3296C48.7442 14.6314 49.2344 15.5776 49.9754 16.1818C50.7255 16.7929 51.7241 17.0961 52.9826 17.0961C54.3187 17.0961 55.3264 16.8293 55.999 16.2867C56.6716 15.7441 57.0159 15.1148 57.0159 14.392C57.0159 13.9269 56.87 13.5302 56.585 13.2019C56.3091 12.8736 55.8098 12.5909 55.0939 12.3583C54.6105 12.1941 53.5093 11.9092 51.7857 11.4965C49.5627 10.963 48.0123 10.3155 47.114 9.54026C45.8463 8.45499 45.2193 7.13717 45.2193 5.56855C45.2193 4.56992 45.5203 3.63057 46.1062 2.7505C46.7013 1.87955 47.554 1.21608 48.6735 0.760085C49.793 0.294971 51.129 0.0715332 52.7159 0.0715332C55.2923 0.0715332 57.2302 0.614167 58.5321 1.70855C59.834 2.80294 60.5134 4.25984 60.5841 6.0861L56.414 6.2229C56.2339 5.20603 55.8531 4.47416 55.2763 4.03413C54.6995 3.58497 53.8194 3.36153 52.6657 3.36153C51.4687 3.36153 50.5294 3.60321 49.8477 4.07745C49.4168 4.38752 49.1933 4.79336 49.1933 5.30863C49.1933 5.77375 49.4008 6.17046 49.8135 6.49878C50.331 6.92969 51.6055 7.36973 53.6233 7.82572C55.6388 8.27488 57.1299 8.75595 58.0966 9.2393C59.0702 9.7295 59.8203 10.393 60.372 11.2388C60.9147 12.0824 61.1905 13.1335 61.1905 14.3761C61.1905 15.4956 60.8622 16.5557 60.2079 17.5384C59.5535 18.5211 58.6233 19.2529 57.424 19.7363C56.227 20.2105 54.7359 20.4522 52.9439 20.4522C50.3424 20.4522 48.3429 19.8845 46.9453 18.7286C45.5476 17.5794 44.72 15.9151 44.4441 13.7172ZM69.3574 20.0943V3.74685H63.2562V0.422649H79.5945V3.74913H73.5275V20.0965H69.3574V20.0943ZM82.2917 20.0943V0.422649H97.5356V3.74913H86.4618V8.11756H96.7604V11.444H86.4618V16.7701H97.9392V20.0965H82.2917V20.0943ZM101.482 20.0943V0.422649H110.237C112.435 0.422649 114.038 0.602767 115.037 0.956163C116.035 1.30956 116.838 1.93883 117.433 2.83486C118.037 3.74001 118.338 4.77284 118.338 5.9379C118.338 7.41989 117.882 8.63511 116.977 9.5927C116.072 10.5571 114.72 11.1613 112.919 11.4098C113.815 11.9092 114.556 12.4609 115.132 13.0651C115.718 13.6602 116.503 14.7272 117.494 16.2525L120.002 20.0965H115.03L112.048 15.7942C110.978 14.2689 110.246 13.3113 109.85 12.9169C109.453 12.5225 109.04 12.2443 108.6 12.0984C108.151 11.9525 107.453 11.8841 106.498 11.8841H105.655V20.0965H101.482V20.0943ZM105.652 8.74683H108.728C110.718 8.74683 111.959 8.66931 112.46 8.50515C112.962 8.34099 113.347 8.06512 113.623 7.6684C113.908 7.28081 114.045 6.78149 114.045 6.19554C114.045 5.53207 113.865 4.99856 113.493 4.5836C113.122 4.17776 112.597 3.92013 111.925 3.81753C111.589 3.77421 110.579 3.74913 108.892 3.74913H105.652V8.74683V8.74683ZM7.39914 46.9979V29.6428H0.609375V27.3332H16.9226V29.6428H10.1328V46.9979H7.39914ZM15.3448 46.9979L23.2472 27.3332H26.2363L34.6197 46.9979H31.5258L29.1387 41.0358H20.4702L18.229 46.9979H15.3448ZM21.2728 38.9246H28.2882L26.1428 33.4709C25.4976 31.8156 25.0051 30.4453 24.6608 29.3692C24.3849 30.6528 24.0065 31.9114 23.5322 33.1517L21.2728 38.9246ZM35.9558 37.4243C35.9558 34.1663 36.8701 31.6172 38.7054 29.7727C40.5408 27.9191 42.9097 27.0071 45.8144 27.0071C47.7182 27.0071 49.4327 27.4381 50.958 28.309C52.4833 29.1708 53.6461 30.3769 54.4487 31.9273C55.2489 33.4777 55.6548 35.2356 55.6548 37.2009C55.6548 39.1913 55.233 40.9742 54.3871 42.5429C53.5435 44.1206 52.3534 45.3085 50.8098 46.1201C49.2594 46.9295 47.5859 47.3263 45.803 47.3263C43.8559 47.3263 42.1322 46.8771 40.5978 45.9902C39.0725 45.0942 37.9189 43.8789 37.1254 42.3286C36.3434 40.785 35.9558 39.1571 35.9558 37.4243ZM38.7738 37.4768C38.7738 39.8388 39.4373 41.7084 40.7734 43.0604C42.1003 44.4216 43.7716 45.1033 45.7893 45.1033C47.8413 45.1033 49.5216 44.4216 50.8554 43.0445C52.1732 41.6742 52.8367 39.718 52.8367 37.1941C52.8367 35.6004 52.5517 34.205 51.984 33.0149C51.4231 31.8247 50.5955 30.8945 49.5011 30.2401C48.4067 29.5858 47.1915 29.2575 45.8304 29.2575C43.8992 29.2575 42.2462 29.8867 40.8577 31.1521C39.4647 32.4175 38.7738 34.5196 38.7738 37.4768Z" fill="white"/>
</svg>
